<svg id="Layer_1" data-name="Layer 1" xmlns="http://www.w3.org/2000/svg" xmlns:xlink="http://www.w3.org/1999/xlink" viewBox="0 0 267.76 435"><defs><style>.cls-1{fill:#fff;}.cls-1,.cls-10,.cls-11,.cls-12,.cls-13,.cls-2,.cls-3,.cls-4,.cls-5,.cls-6,.cls-7,.cls-8{fill-rule:evenodd;}.cls-2{fill:#ff7081;}.cls-3{fill:#7cabff;}.cls-4{fill:#7e2e84;}.cls-5{fill:#fbc580;}.cls-6{fill:#241352;}.cls-7{fill:#e6e2eb;}.cls-8{fill:#ff957e;}.cls-9{mask:url(#mask);}.cls-10{fill:#e2d3f5;}.cls-11{fill:#ffafa7;}.cls-12{fill:#6f35a5;}.cls-13{fill:#fcf2fc;}</style><mask id="mask" x="1.06" y="196.04" width="204" height="238.95" maskUnits="userSpaceOnUse"><g transform="translate(-62.42 94.08)"><g id="mask-4"><polygon id="path-3" class="cls-1" points="63.48 101.96 267.48 101.96 267.48 340.91 63.48 340.91 63.48 101.96"/></g></g></mask></defs><g id="Page-1"><g id="_01" data-name="01"><g id="Group-217"><path id="Fill-3" class="cls-2" d="M320.58-81.79" transform="translate(-62.42 94.08)"/><path id="Fill-5" class="cls-3" d="M255.54,123.88c-4.6,6.62-6.34,16.93-2,24.88,4.13,7.49,12.13,9.08,17.29,3.11,12.45-14.41-.53-41-14-35.5-2.49,1-1.87,6.34.59,6.55,3.93.33,8.13.56,11.28,4.69,3.37,4.43,3.44,11.94.68,17-7.33,13.5-20.06-6.39-12.36-18.46,1-1.52-.53-3.78-1.55-2.31" transform="translate(-62.42 94.08)"/><path id="Fill-7" class="cls-4" d="M210,90.47c-1.28-1.53-2.68-2.7-3.32-4.74-1.27-4.08,1.16-6.1,4-7.61s5.25-3.34,6.11-7.06c1.35-5.8-3-13-8.6-11.24-1.81.56-1.27,3.17,0,4,1.72,1.13,4,1.78,4.33,4.47.39,3.6-2.75,4.63-4.94,5.93a10.33,10.33,0,0,0-4.91,6.48c-1.3,5.08,1.38,12,6.62,11.69a1.24,1.24,0,0,0,.73-1.89" transform="translate(-62.42 94.08)"/><path id="Fill-9" class="cls-5" d="M193.09,161.13c.5,3.84,3.86,12,7.39,13.08,1.88.6,3.27-.87,4.74-2.06,2.65-2.18,5.27-4.4,7.9-6.62a3,3,0,0,0,.81-3.67q-3.5-6.37-7-12.75c-.62-1.13-2.05-1.83-3.09-1-2.89,2.44-6,4.69-8.64,7.54-1.8,2,.49,5.19,2.53,3.91,3-1.86,5.65-4.52,8.39-6.82l-3.08-1,7,12.74.81-3.66-4.73,4c-.89.76-3.86,4.08-4.85,3.94s-2.75-3.87-3.3-4.64a19.74,19.74,0,0,0-3.6-4.23c-.69-.56-1.37.36-1.27,1.16" transform="translate(-62.42 94.08)"/><path id="Fill-13" class="cls-2" d="M185.38,63.19c-6.14,3.18-12.17,6.54-18.19,10a2.41,2.41,0,0,0-.56,3.84C171,82.09,175.4,87.2,180.14,91.9a1.78,1.78,0,0,0,2.86-.77c2.95-7.16,7.42-16.93,6.2-25-.32-2.07-3.15-3-3.91-.71-1.18,3.61-1.17,7.65-1.93,11.4a64.53,64.53,0,0,1-3.76,12.68l3.21-.37c-4.32-5.45-9-10.48-13.67-15.55l-.09,3.54c5.91-3.69,11.76-7.44,17.52-11.39,1.22-.83.12-3.16-1.19-2.49" transform="translate(-62.42 94.08)"/><path id="Fill-15" class="cls-2" d="M243.35,120.12a118.28,118.28,0,0,1-16.68-10.26c-1.47-1.14,2.16-2.44,4-1.41a103.42,103.42,0,0,1,15.37,10.73c.94.78-1.4,1.63-2.7.94" transform="translate(-62.42 94.08)"/><path id="Fill-19" class="cls-6" d="M227.94,117.19l-.32-.34c-1.38-1.48-3.66-1.77-5,0a5,5,0,0,0,0,6l.28.38c1.24,1.69,4.83,5.1,6.08,3.46s.46-7.94-1-9.52" transform="translate(-62.42 94.08)"/><path id="Fill-41" class="cls-2" d="M298.67-98.73" transform="translate(-62.42 94.08)"/><path id="Fill-56" class="cls-7" d="M246.27-93.58a.19.19,0,0,0,0-.37" transform="translate(-62.42 94.08)"/><path id="Fill-56-2" data-name="Fill-56" class="cls-7" d="M180.51-94.08a.32.32,0,0,0,0,.63" transform="translate(-62.42 94.08)"/><path id="Fill-56-3" data-name="Fill-56" class="cls-7" d="M246.27-93.95" transform="translate(-62.42 94.08)"/><path id="Fill-110" class="cls-8" d="M297.33,173.31a184.29,184.29,0,0,0,2.49-23.41c.07-2.42-2.81-3-3.14-.58a185.53,185.53,0,0,0-1.46,23.6c0,1.62,1.84,2,2.11.39" transform="translate(-62.42 94.08)"/><path id="Fill-112" class="cls-6" d="M329.16,198.06l-.32-.33c-1.39-1.48-3.66-1.77-5,0a5,5,0,0,0,0,6l.28.38a3.19,3.19,0,0,0,5.05,0c1.24-1.63,1.49-4.48,0-6.07" transform="translate(-62.42 94.08)"/><g id="Group-116"><g class="cls-9"><path id="Fill-114" class="cls-10" d="M267.48,221.44c0,66-45.67,119.48-102,119.48s-102-53.5-102-119.48S109.14,102,165.48,102s102,53.49,102,119.48" transform="translate(-62.42 94.08)"/></g></g><path id="Fill-117" class="cls-11" d="M173.76,190.69l64.89,29.49-6.19-31.77,16.87-5.19s18.16,62.09,5.55,63.75c-22.07,2.91-55.47-7.68-55.47-7.68Z" transform="translate(-62.42 94.08)"/><path id="Fill-119" class="cls-12" d="M195.84,260.7l-.14,60.57c-16.36,24.51-73.32-7.19-73.32-7.19l-.67-24.77-1.32-59a46.67,46.67,0,0,1,19.22-35c7.4-4.49,18.69-7.05,28.86-6.44,10.61.65,13.24,6.84,17.61,18.65,3.53,9.54,9.76,18.49,9.76,53.21" transform="translate(-62.42 94.08)"/><path id="Fill-121" class="cls-11" d="M145.56,248.58s-8.12,57.76,3.32,56.34c37.64-4.67,60.05-5.3,60.05-5.3l6.24,15.64c.14,2.67-71.28,27.36-82.75,19.2-8.1-5.77-21-21.29-15.15-67.7l1.38-15.56Z" transform="translate(-62.42 94.08)"/><path id="Fill-123" class="cls-12" d="M124.57,211.91s-8.68,10.22-10.62,48.86l33.6-4.55s5.6-65.82-23-44.31" transform="translate(-62.42 94.08)"/><path id="Fill-125" class="cls-11" d="M140.91,131.48l.76,12.14s-8.56,1.39-6.12,10.8,8.3,5.29,8.3,5.29,1.46,24.11,22,16.47c16.31-6.09,15.32-31.54,13.25-53.25-.81-8.4-7.41-14.18-14.3-12.56l-12.33,2.89c-7.12,1.67-12.08,9.5-11.53,18.22" transform="translate(-62.42 94.08)"/><path id="Fill-127" class="cls-11" d="M142.47,152.19l5.62,35.9c1.27,8.08,7.92,13.26,14.6,11.35,6.19-1.77,10.15-9,9-16.52l-3-20.58Z" transform="translate(-62.42 94.08)"/><path id="Fill-129" class="cls-6" d="M165.5,153.39c.05-.07.16.32.41.38s.61-.42.69-1.42a23.64,23.64,0,0,0,0-3.77c-.07-1.61-.13-3.2-.2-4.87-.23-6.92-.24-12.54,0-12.57s.57,5.56.81,12.48c0,1.67.08,3.26.13,4.87a21.24,21.24,0,0,1-.17,4.15c-.18,1.27-.87,2.05-1.3,1.68a1,1,0,0,1-.33-.93" transform="translate(-62.42 94.08)"/><path id="Fill-131" class="cls-6" d="M172.83,174.38c.1.12-.75,1.12-2.49,2.2a15.38,15.38,0,0,1-7.54,2.2,15.22,15.22,0,0,1-7.62-1.86c-1.78-1-2.67-2-2.58-2.08.16-.37,4.3,2.79,10.17,2.63s9.89-3.45,10.06-3.09" transform="translate(-62.42 94.08)"/><path id="Fill-133" class="cls-6" d="M167.29,157.44c.12.1-.14.84-1,1.57a4.2,4.2,0,0,1-4.06.69,5.23,5.23,0,0,1-3-3.32c-.35-1.19-.19-2-.05-2s.31.67.78,1.57a5.21,5.21,0,0,0,2.57,2.45,4.28,4.28,0,0,0,3.33-.24c.83-.41,1.28-.88,1.41-.75" transform="translate(-62.42 94.08)"/><path id="Fill-135" class="cls-6" d="M140.61,155.28c0,.14-.33.39-.92.12a1.78,1.78,0,0,1-.81-1.22,2.61,2.61,0,0,1,0-1.16,1.44,1.44,0,0,1,.6-1c.39-.25.92-.1,1.17.56l-.66.53c-.43-1.7-.64-3-.48-3.11s.65,1,1.16,2.64l-.65.54a.19.19,0,0,0-.26,0c-.15.07-.21.34-.16.7a1.39,1.39,0,0,0,.36.78c.36.37.7.48.69.66" transform="translate(-62.42 94.08)"/><path id="Fill-137" class="cls-6" d="M157.19,130.9c-.09.32-.9.31-1.8.59s-1.61.7-1.83.48.35-1.25,1.56-1.6,2.18.25,2.07.53" transform="translate(-62.42 94.08)"/><path id="Fill-139" class="cls-6" d="M174.67,126.9c-.13.31-1.12.16-2.28.27s-2.11.41-2.29.14.72-1.16,2.19-1.29,2.52.61,2.38.88" transform="translate(-62.42 94.08)"/><path id="Fill-141" class="cls-6" d="M144.06,142.68c5.6-6.78,7.25-18.06,8.77-27.58a16.49,16.49,0,0,0,18.3,3,32.62,32.62,0,0,0,6.51,7.06c.7.55,1.52,1.09,2.31.8.94-.36,1.36-1.69,1.58-2.88a25.21,25.21,0,0,0-.32-11.53c-1.07-3.66-3.31-6.88-6.24-8.29-3.13-1.5-6.66-.85-9.91.2a49.31,49.31,0,0,0-14,7.17c-4.29,3.11-8.4,7.23-10.22,13s-1.81,16.88,2.57,19.78" transform="translate(-62.42 94.08)"/><path id="Fill-143" class="cls-12" d="M176.11,191.22c-5.7-2.61,38.14,16.15,38.14,16.15l-4.45,34.57-16.67-6.31Z" transform="translate(-62.42 94.08)"/><path id="Fill-145" class="cls-11" d="M204.72,299.14s18.52-7,17.88-4.67-3.78,2.37-6.93,6.07c0,0,20.7.26,19.7,2.31s-14.47,2.55-14.55,2.9,14.74.78,14.41,2.67-14.11,1.43-14.11,1.43,12.77,1.63,12.51,3.66-12,.58-12,.58,9.86,1.34,9.6,3.19c-.16,1.12-28.85,1.38-28.91,2.2,0,.44,2.44-20.34,2.44-20.34" transform="translate(-62.42 94.08)"/><path id="Fill-147" class="cls-11" d="M232.86,191s-11.17-18.93-9.17-18.92,3,3.57,6.89,6c0,0-6.17-23.68-4.26-23.18s6.47,15.69,6.77,15.68-3.94-17-2.35-17.26,5.47,15.64,5.47,15.64-2.66-15.06-1-15.4,4.15,13.53,4.15,13.53-2-11.64-.45-11.93c.93-.17,9.36,28.72,9.36,28.72-.22,0-15.43,7.11-15.43,7.11" transform="translate(-62.42 94.08)"/><path id="Fill-149" class="cls-13" d="M130.89,241.94c.11,0,.52.79.54,2.41a3.46,3.46,0,0,1-1.17,2.63,2,2,0,0,1-1.71.45,2.93,2.93,0,0,1-1.49-1.08c-.71-.93-1.18-1.48-1.9-1.58a1.93,1.93,0,0,0-1.73.56c-.85.87-.82,1.87-1,1.86s-.55-1.08.4-2.49a2.72,2.72,0,0,1,2.45-1.11,2.86,2.86,0,0,1,1.53.65,9.93,9.93,0,0,1,1.09,1.23c1.14,1.75,2.64,0,2.72-1.21s.08-2.31.27-2.32" transform="translate(-62.42 94.08)"/><path id="Fill-151" class="cls-13" d="M140.64,232.09c-.07-.11.33-1,1.53-1.84a2.49,2.49,0,0,1,2.57-.25,2.34,2.34,0,0,1,1.21,1.45,4,4,0,0,1,0,2.06,4.2,4.2,0,0,0-.21,2.74,2.23,2.23,0,0,0,1.3,1.42c1.08.37,1.82-.2,1.9,0s-.52,1.12-2.06.94a2.85,2.85,0,0,1-2.09-1.83,4,4,0,0,1-.29-1.86,11,11,0,0,1,.36-1.75,1.6,1.6,0,0,0-2.31-2.05c-1.08.54-1.76,1.17-1.87,1" transform="translate(-62.42 94.08)"/><path id="Fill-153" class="cls-13" d="M140.64,206.61c-.07-.11.33-1,1.53-1.84a2.49,2.49,0,0,1,2.57-.25A2.34,2.34,0,0,1,146,206a4,4,0,0,1,0,2.06,4.18,4.18,0,0,0-.21,2.73,2.21,2.21,0,0,0,1.3,1.42c1.08.37,1.82-.19,1.9,0s-.52,1.12-2.07.94a2.88,2.88,0,0,1-2.08-1.83,4.05,4.05,0,0,1-.29-1.87,11.08,11.08,0,0,1,.36-1.74,1.6,1.6,0,0,0-2.31-2c-1.09.54-1.76,1.17-1.87,1" transform="translate(-62.42 94.08)"/><path id="Fill-155" class="cls-13" d="M160.42,239.71c-.09.09-.85-.3-1.72-1.6a3.62,3.62,0,0,1-.45-2.92,2.39,2.39,0,0,1,1.15-1.51,2.64,2.64,0,0,1,1.78-.13c1.07.28,1.73.42,2.38,0a2.36,2.36,0,0,0,1.11-1.61c.22-1.28-.33-2.07-.19-2.18s1,.5,1,2.29a3.29,3.29,0,0,1-1.39,2.54,2.73,2.73,0,0,1-1.59.5,7.57,7.57,0,0,1-1.54-.27c-1.85-.65-2.16,1.74-1.56,2.82s1.17,1.92,1,2.06" transform="translate(-62.42 94.08)"/><path id="Fill-157" class="cls-13" d="M174.67,266.26c.07.13-.4,1-1.71,1.86a2.53,2.53,0,0,1-2.7,0,2.63,2.63,0,0,1-1.17-1.7,4.35,4.35,0,0,1,.18-2.22,4.78,4.78,0,0,0,.4-3,2.48,2.48,0,0,0-1.27-1.66c-1.11-.51-1.92,0-2-.16s.62-1.18,2.22-.83a3.17,3.17,0,0,1,2.06,2.18,4.49,4.49,0,0,1,.18,2.05,12.62,12.62,0,0,1-.49,1.87,1.74,1.74,0,0,0,2.28,2.44c1.17-.48,1.91-1.1,2-.9" transform="translate(-62.42 94.08)"/><path id="Fill-159" class="cls-13" d="M193.08,224.16c.06.13-.41,1-1.72,1.86a2.55,2.55,0,0,1-2.7,0,2.66,2.66,0,0,1-1.17-1.7,4.52,4.52,0,0,1,.18-2.23,4.74,4.74,0,0,0,.4-3,2.48,2.48,0,0,0-1.27-1.66c-1.11-.51-1.91,0-2-.16s.62-1.18,2.23-.83a3.18,3.18,0,0,1,2.05,2.18,4.63,4.63,0,0,1,.19,2.05,14,14,0,0,1-.49,1.87,1.73,1.73,0,0,0,2.27,2.44c1.17-.48,1.92-1.1,2-.9" transform="translate(-62.42 94.08)"/><path id="Fill-161" class="cls-13" d="M203.68,217.59c.08-.12,1,.12,2.17,1.25a3.59,3.59,0,0,1,1,2.9,2.6,2.6,0,0,1-1,1.79A3.11,3.11,0,0,1,204,224c-1.22-.06-2,0-2.6.5a2.51,2.51,0,0,0-.91,1.89c0,1.34.73,2,.59,2.18s-1.2-.29-1.5-2.12a3.43,3.43,0,0,1,1.06-2.9,3.28,3.28,0,0,1,1.64-.85,9.22,9.22,0,0,1,1.72-.05c2.14.27,2-2.24,1.19-3.22s-1.61-1.71-1.48-1.88" transform="translate(-62.42 94.08)"/><path id="Fill-163" class="cls-13" d="M156.27,288.42c.07.13-.4,1-1.71,1.85a2.54,2.54,0,0,1-2.71,0,2.66,2.66,0,0,1-1.17-1.7,4.52,4.52,0,0,1,.18-2.23,4.74,4.74,0,0,0,.4-2.95,2.47,2.47,0,0,0-1.26-1.66c-1.11-.51-1.92,0-2-.16s.62-1.18,2.22-.83a3.12,3.12,0,0,1,2.05,2.18,4.63,4.63,0,0,1,.19,2.05,12.62,12.62,0,0,1-.49,1.87,1.74,1.74,0,0,0,2.27,2.44c1.17-.48,1.92-1.1,2-.9" transform="translate(-62.42 94.08)"/><path id="Fill-165" class="cls-13" d="M182,246.36c-.1.08-.77-.44-1.46-1.93a4.36,4.36,0,0,1-.13-3.17,2.33,2.33,0,0,1,1.23-1.43,2.19,2.19,0,0,1,1.68.12c1,.45,1.59.69,2.23.34a2.35,2.35,0,0,0,1.2-1.54,9.16,9.16,0,0,0,0-2.34c.07-.14.91.67.71,2.56a3.4,3.4,0,0,1-1.55,2.5,2.33,2.33,0,0,1-1.54.3,6.56,6.56,0,0,1-1.42-.5c-1.68-1-2.2,1.54-1.74,2.76s.9,2.2.75,2.33" transform="translate(-62.42 94.08)"/><path id="Fill-167" class="cls-13" d="M187.55,268.52c-.09.08-.77-.44-1.46-1.94a4.34,4.34,0,0,1-.13-3.16,2.33,2.33,0,0,1,1.23-1.43,2.15,2.15,0,0,1,1.68.12c1,.45,1.59.69,2.23.34a2.34,2.34,0,0,0,1.2-1.55,8.57,8.57,0,0,0,0-2.33c.07-.15.91.67.71,2.56a3.39,3.39,0,0,1-1.56,2.5,2.29,2.29,0,0,1-1.53.3,6.56,6.56,0,0,1-1.42-.5c-1.68-1-2.2,1.53-1.74,2.76s.9,2.2.75,2.33" transform="translate(-62.42 94.08)"/><path id="Fill-169" class="cls-13" d="M151,260.77c-.11,0-.34-1-.06-2.76a3.59,3.59,0,0,1,1.6-2.53,1.62,1.62,0,0,1,1.69,0,3.41,3.41,0,0,1,1.19,1.57c.49,1.2.82,1.92,1.48,2.23a1.62,1.62,0,0,0,1.73-.13c1-.71,1.12-1.8,1.28-1.74s.32,1.31-.84,2.58a2.21,2.21,0,0,1-2.5.54,3,3,0,0,1-1.31-1.13,12.2,12.2,0,0,1-.8-1.63c-.74-2.2-2.46-.77-2.78.58s-.5,2.48-.68,2.44" transform="translate(-62.42 94.08)"/><path id="Fill-171" class="cls-13" d="M184.08,287.36c-.12,0-.35-1-.06-2.76a3.61,3.61,0,0,1,1.59-2.53,1.62,1.62,0,0,1,1.69,0,3.34,3.34,0,0,1,1.19,1.57c.5,1.2.83,1.93,1.49,2.23a1.62,1.62,0,0,0,1.73-.13c1-.71,1.12-1.8,1.28-1.74s.32,1.31-.84,2.58a2.22,2.22,0,0,1-2.5.54,2.9,2.9,0,0,1-1.31-1.13,11.09,11.09,0,0,1-.8-1.63c-.74-2.21-2.47-.77-2.78.58s-.5,2.48-.68,2.44" transform="translate(-62.42 94.08)"/><path id="Fill-173" class="cls-13" d="M182.24,205.37c-.12,0-.35-1-.06-2.76a3.63,3.63,0,0,1,1.59-2.53,1.65,1.65,0,0,1,1.69,0,3.32,3.32,0,0,1,1.19,1.58c.49,1.2.83,1.92,1.49,2.22a1.6,1.6,0,0,0,1.73-.12c1-.71,1.12-1.81,1.28-1.75s.32,1.32-.84,2.59a2.23,2.23,0,0,1-2.5.53A2.87,2.87,0,0,1,186.5,204a11.09,11.09,0,0,1-.8-1.63c-.74-2.21-2.47-.77-2.78.57s-.5,2.48-.68,2.44" transform="translate(-62.42 94.08)"/><path id="Fill-175" class="cls-13" d="M170.78,298.4c-.07.12-.94,0-2.18-.94a3.42,3.42,0,0,1-1.28-2.67,2.57,2.57,0,0,1,.72-1.86,2.88,2.88,0,0,1,1.74-.73c1.15-.1,1.86-.2,2.39-.82a2.54,2.54,0,0,0,.65-1.94c-.14-1.31-.92-1.89-.8-2s1.16.13,1.65,1.86a3.48,3.48,0,0,1-.67,2.94,3.27,3.27,0,0,1-1.45,1,9.68,9.68,0,0,1-1.62.28c-2,0-1.67,2.42-.76,3.25s1.71,1.46,1.61,1.64" transform="translate(-62.42 94.08)"/><path id="Fill-177" class="cls-13" d="M131.61,217.57c.1-.07.79.5,1.41,2a3.73,3.73,0,0,1-.13,3,2.27,2.27,0,0,1-1.44,1.22,2.73,2.73,0,0,1-1.79-.31c-1-.54-1.65-.84-2.37-.59a2.25,2.25,0,0,0-1.42,1.32c-.47,1.21-.07,2.13-.24,2.2s-.92-.74-.54-2.51a3.07,3.07,0,0,1,1.87-2.17,2.74,2.74,0,0,1,1.68-.11,8.13,8.13,0,0,1,1.48.64c1.72,1.1,2.49-1.19,2.1-2.41s-.79-2.18-.61-2.28" transform="translate(-62.42 94.08)"/><path id="Fill-179" class="cls-13" d="M170.25,209.81c.11-.07.79.5,1.41,2a3.71,3.71,0,0,1-.13,3A2.21,2.21,0,0,1,170.1,216a2.69,2.69,0,0,1-1.8-.31c-1-.54-1.64-.84-2.36-.59a2.25,2.25,0,0,0-1.42,1.32c-.47,1.21-.07,2.14-.24,2.21s-.92-.75-.55-2.51a3.12,3.12,0,0,1,1.88-2.18,2.63,2.63,0,0,1,1.67-.1,7.59,7.59,0,0,1,1.49.64c1.72,1.1,2.49-1.19,2.1-2.41s-.79-2.19-.62-2.29" transform="translate(-62.42 94.08)"/><path id="Fill-181" class="cls-6" d="M147.51,256.34a11.76,11.76,0,0,1,0-2.76c.1-1.77.28-4.32.53-7.47.49-6.3,1.27-15,2.19-24.58a32.15,32.15,0,0,0,0-6.86,12.88,12.88,0,0,0-2.09-5.68,13.91,13.91,0,0,0-7.87-5.55,21.14,21.14,0,0,0-6.46-.64,11.6,11.6,0,0,1-2.43.06,6.6,6.6,0,0,1,2.39-.6,18.25,18.25,0,0,1,6.69.22,14,14,0,0,1,11,12,32.1,32.1,0,0,1,0,7.2c-.91,9.61-1.83,18.28-2.55,24.56-.35,3.13-.67,5.67-.91,7.42a11.9,11.9,0,0,1-.5,2.7" transform="translate(-62.42 94.08)"/><path id="Fill-183" class="cls-6" d="M148,255.34c0,.37-7.57,1.61-17,2.78s-17,1.81-17.08,1.44,7.56-1.62,17-2.79S148,255,148,255.34" transform="translate(-62.42 94.08)"/><path id="Fill-185" class="cls-4" d="M231.48,270.83c.29-2.42.23-4.74,1.33-6.88,2.17-4.26,5.26-3.19,8.25-1.32s5.92,3.06,9.23,1.28c5.18-2.79,7.61-12.51,2.67-17.09-1.6-1.48-3.17,1-3,2.84.3,2.61,1.34,5.49-.46,7.74-2.4,3-5.22.48-7.62-.87a8.22,8.22,0,0,0-8-.43c-4.6,2.32-7.94,10.1-4.29,15.35a1.06,1.06,0,0,0,1.88-.62" transform="translate(-62.42 94.08)"/><path id="Fill-187" class="cls-2" d="M265.75,181.84c-3.75,4.23-5.17,10.81-1.59,15.89,3.36,4.79,9.88,5.81,14.08,2,10.15-9.21-.43-26.2-11.38-22.68-2,.65-1.53,4.05.48,4.18,3.2.22,6.63.36,9.19,3,2.74,2.83,2.8,7.62.55,10.88-6,8.63-16.34-4.08-10.07-11.79.79-1-.43-2.41-1.26-1.47" transform="translate(-62.42 94.08)"/><path id="Fill-189" class="cls-3" d="M115.77,174.08c-3.75,4.23-5.17,10.81-1.6,15.9,3.37,4.78,9.88,5.8,14.08,2,10.16-9.21-.42-26.2-11.38-22.68-2,.65-1.52,4,.48,4.18,3.21.21,6.63.35,9.19,3,2.75,2.84,2.81,7.63.56,10.89-6,8.63-16.34-4.08-10.07-11.8.79-1-.43-2.4-1.26-1.47" transform="translate(-62.42 94.08)"/><path id="Fill-191" class="cls-2" d="M65.24,277.43c2.38,11,5,21.87,7.73,32.74.66,2.61,2.65,3.43,4.46,1.91,7.11-6,14.22-11.91,20.95-18.55a3.65,3.65,0,0,0-.26-4.95c-7.89-6.73-18.54-16.66-28.55-16.73-2.54,0-4.32,4.43-1.74,6.28,4,2.9,8.88,3.93,13.19,6.16a68.71,68.71,0,0,1,14.3,9.49l.3-5.41C88.09,294.13,81,300.59,73.84,307l4.23,1c-3-10.73-6.19-21.39-9.57-32-.72-2.24-3.77-1-3.26,1.33" transform="translate(-62.42 94.08)"/><path id="Fill-193" class="cls-5" d="M276.77,231.64c6.36,1,32.28,1.68,38.69,1.43,2.36-.09-16.95-3.69-19.22-3.95a102.94,102.94,0,0,0-19.15-.06c-1.26.1-1.76,2.35-.32,2.58" transform="translate(-62.42 94.08)"/><path id="Fill-195" class="cls-5" d="M63.3,231.64A105,105,0,0,0,82.77,233c2.36-.09,2.27-3.64,0-3.9a103,103,0,0,0-19.15-.06c-1.26.1-1.76,2.35-.32,2.58" transform="translate(-62.42 94.08)"/><path id="Fill-197" class="cls-6" d="M105.56,219.11l-.32-.33c-1.38-1.48-3.66-1.77-5,0a5,5,0,0,0,0,6l.28.38a3.18,3.18,0,0,0,5,0c1.24-1.63,1.5-4.48,0-6.07" transform="translate(-62.42 94.08)"/><path id="Fill-199" class="cls-6" d="M195.37,256.34c-.24,0-.46-6.67-.92-14.91s-.26-15,0-15,.45,6.67.92,14.91.26,15,0,15" transform="translate(-62.42 94.08)"/><polygon id="Fill-201" class="cls-6" points="170.23 287.4 187.6 281.73 188.63 285.39 171.1 291.7 170.23 287.4"/><path id="Fill-203" class="cls-7" d="M242.77,192.08a1.87,1.87,0,1,1-1.84-2.22,2.06,2.06,0,0,1,1.84,2.22" transform="translate(-62.42 94.08)"/><path id="Fill-205" class="cls-6" d="M174.5,136.64c-.22.16-.67-.12-1.1-.69s-.62-1.27-.38-1.44.67.12,1.1.69.61,1.27.38,1.44" transform="translate(-62.42 94.08)"/><path id="Fill-207" class="cls-6" d="M160.7,138.85c-.22.16-.67-.11-1.1-.68s-.62-1.27-.38-1.44.66.12,1.1.69.61,1.26.38,1.43" transform="translate(-62.42 94.08)"/></g><path id="Fill-5-2" data-name="Fill-5" class="cls-3" d="M295.86,271.85c4.06-6.26,5.6-16,1.73-23.53-3.65-7.08-10.7-8.58-15.25-2.94" transform="translate(-62.42 94.08)"/></g><path class="cls-5" d="M-157.51,302.34" transform="translate(-62.42 94.08)"/></g></svg>